<svg xmlns="http://www.w3.org/2000/svg" xmlns:xlink="http://www.w3.org/1999/xlink" viewBox="0 0 484.67 123.97">
  <defs>
    <style>
      .cls-1 {
        fill: #b43c44;
      }

      .cls-2 {
        fill: #2c5aa0;
      }

      .cls-3 {
        fill: url(#名称未設定グラデーション);
      }

      .cls-4 {
        fill: url(#名称未設定グラデーション-2);
      }

      .cls-5 {
        fill: url(#名称未設定グラデーション-3);
      }

      .cls-6 {
        fill: url(#名称未設定グラデーション-4);
      }

      .cls-7 {
        fill: url(#名称未設定グラデーション-5);
      }
    </style>
    <linearGradient id="名称未設定グラデーション" x1="-421.2" y1="533.82" x2="-421.08" y2="522.78" gradientTransform="matrix(4.91, 0, 0, -5.14, 2387.98, 2777.63)" gradientUnits="userSpaceOnUse">
      <stop offset="0" stop-color="#c83737"/>
      <stop offset="1" stop-color="#c83737" stop-opacity="0"/>
    </linearGradient>
    <linearGradient id="名称未設定グラデーション-2" data-name="名称未設定グラデーション" x1="-462.52" y1="561.78" x2="-470.51" y2="561.61" gradientTransform="matrix(5.89, 0, 0, -6.17, 3009.39, 3489.37)" xlink:href="#名称未設定グラデーション"/>
    <linearGradient id="名称未設定グラデーション-3" data-name="名称未設定グラデーション" x1="-431.56" y1="541.19" x2="-433.96" y2="541.19" gradientTransform="matrix(4.91, 0, 0, -5.14, 2401.9, 2847.74)" xlink:href="#名称未設定グラデーション"/>
    <linearGradient id="名称未設定グラデーション-4" data-name="名称未設定グラデーション" x1="-464.91" y1="530.48" x2="-460.13" y2="525.83" gradientTransform="matrix(6.75, 0, 0, -5.14, 3492.68, 2778.07)" xlink:href="#名称未設定グラデーション"/>
    <linearGradient id="名称未設定グラデーション-5" data-name="名称未設定グラデーション" x1="-353.05" y1="551.55" x2="-348.31" y2="551.6" gradientTransform="matrix(3.29, 0, 0, -5.14, 1518.88, 2876.2)" xlink:href="#名称未設定グラデーション"/>
  </defs>
  <title>aa</title>
  <g id="レイヤー_2" data-name="レイヤー 2">
    <g id="svg8">
      <g>
        <path class="cls-1" d="M158.88,119a30.18,30.18,0,0,1-41-7.93,31.74,31.74,0,0,1-5.69-14.42,61.11,61.11,0,0,1-16.5,16.91c-28.12,19.36-66.27,10.9-85.21-18.87A66.9,66.9,0,0,1,0,56.69,62.09,62.09,0,0,0,4,73.44c11.88,30.5,45.27,45.18,74.62,32.8s43.47-47.09,31.6-77.56a59.47,59.47,0,0,0-14.4-21.6,64.36,64.36,0,0,1,16.44,17.56A67.06,67.06,0,0,1,122.33,68a22.67,22.67,0,0,1,2.29-2,30.61,30.61,0,0,1,24.09-6.07c-15.12,3.27-25.15,18.45-22.52,34.45S143.39,121.39,158.88,119Z"/>
        <path class="cls-2" d="M6.19,54.41c.15,19.67,31.17,19.87,38.87,20s22.28-.29,24.58-11S40.7,41.11,40.9,31.78,51.49,19.06,51.49,19.06c1.23-.16,6.47-1.73,12-1.48a111.37,111.37,0,0,1,17.92,2.69S53.7,19,51.37,29,65.15,43,76.3,49.71s23.62,11.84,25.21,21.34S97.81,86.82,88,93.21s-28.49,10.16-43.67,6.55C37.65,98.16,28,96.54,19.51,89.38c-9.22-7.77-13.77-22.91-14.3-25-6.68-26.84,9-52.72,34.26-61.49,27.45-9.55,57.36,5.49,66.86,33.56a53.16,53.16,0,0,1,1.9,7.31,46.61,46.61,0,0,0-2.1-5.27C94.51,13.83,63.78,4.13,37,15.7,17.84,24,6,33.9,6.19,54.41Z"/>
      </g>
      <g id="layer1">
        <g id="g2344">
          <path id="path1064" class="cls-2" d="M215.18,76.73a20,20,0,0,1-.81,5.9,17.55,17.55,0,0,1-2.07,4.59,14.18,14.18,0,0,1-3,3.39,18.58,18.58,0,0,1-3.61,2.3,17.36,17.36,0,0,1-3.81,1.31,16.2,16.2,0,0,1-3.61.43H157.57v-11h40.66a6,6,0,0,0,4.7-1.87,7.15,7.15,0,0,0,1.71-5,8.41,8.41,0,0,0-.45-2.81,6.43,6.43,0,0,0-1.3-2.21,5.4,5.4,0,0,0-2-1.44,6.61,6.61,0,0,0-2.64-.51H174a18.5,18.5,0,0,1-5.52-.93,16.35,16.35,0,0,1-9.73-8.67,19.19,19.19,0,0,1-1.66-8.41,19,19,0,0,1,1.66-8.37A17.14,17.14,0,0,1,163,37.82a15.88,15.88,0,0,1,5.51-3.1,17.74,17.74,0,0,1,5.52-1h35.88v11H174a6,6,0,0,0-4.71,1.91,7.46,7.46,0,0,0-1.66,5,7.38,7.38,0,0,0,1.66,5.06A6.16,6.16,0,0,0,174,58.63h24.32a17.13,17.13,0,0,1,3.61.51,16.76,16.76,0,0,1,3.77,1.36,17.6,17.6,0,0,1,3.61,2.38,14.52,14.52,0,0,1,3,3.4,16.76,16.76,0,0,1,2.11,4.58,20.77,20.77,0,0,1,.77,5.87Z"/>
          <path id="path1066" class="cls-2" d="M349.37,59.23a23.29,23.29,0,0,1-.89,6.75,19.19,19.19,0,0,1-2.43,5.27,17,17,0,0,1-3.49,3.86,19.3,19.3,0,0,1-4.17,2.63A19.71,19.71,0,0,1,334,79.23a20,20,0,0,1-4.14.47H306v-11h23.84a12.29,12.29,0,0,0,3.65-.85,9,9,0,0,0,2.84-1.92,8.29,8.29,0,0,0,1.82-2.84,10.49,10.49,0,0,0,.65-3.82v-5a15,15,0,0,0-.85-3.82,9,9,0,0,0-1.78-3,7.42,7.42,0,0,0-2.68-1.91,8.71,8.71,0,0,0-3.65-.72H306.11a4.24,4.24,0,0,0-3.2,1.14,4.62,4.62,0,0,0-1.09,3.31V94.65H291.27V49.24A16.33,16.33,0,0,1,292.73,42a14.89,14.89,0,0,1,3.69-4.8,14.47,14.47,0,0,1,4.83-2.63,15.63,15.63,0,0,1,4.78-.85h23.84a19.66,19.66,0,0,1,6.41,1,17.14,17.14,0,0,1,5,2.55A15.94,15.94,0,0,1,345,40.92a21.59,21.59,0,0,1,2.52,4.37,21.1,21.1,0,0,1,1.46,4.59,22.55,22.55,0,0,1,.44,4.33Z"/>
          <path id="path1068" class="cls-3" d="M349.5,59.25a23.63,23.63,0,0,1-.89,6.75,19.79,19.79,0,0,1-2.43,5.27,17.26,17.26,0,0,1-3.49,3.86,20.06,20.06,0,0,1-4.18,2.64,19.34,19.34,0,0,1-4.38,1.48,19.9,19.9,0,0,1-4.13.47H306.16v-11H330a12.29,12.29,0,0,0,3.65-.85,9,9,0,0,0,2.84-1.91,8.43,8.43,0,0,0,1.82-2.85,10.7,10.7,0,0,0,.65-3.82v-5a15.46,15.46,0,0,0-.85-3.83,8.83,8.83,0,0,0-1.79-3,7.47,7.47,0,0,0-2.67-1.91,8.74,8.74,0,0,0-3.65-.72H306.24A4.22,4.22,0,0,0,303,46a4.63,4.63,0,0,0-1.1,3.32v45.4H291.4V49.27a16.27,16.27,0,0,1,1.46-7.22,14.68,14.68,0,0,1,3.69-4.8,14.32,14.32,0,0,1,4.83-2.64,15.58,15.58,0,0,1,4.78-.85H330a19.59,19.59,0,0,1,6.4,1,16.89,16.89,0,0,1,5,2.55,16,16,0,0,1,3.69,3.65,20.9,20.9,0,0,1,2.51,4.38,20,20,0,0,1,1.46,4.58,22.62,22.62,0,0,1,.45,4.34Z"/>
          <path id="path1070" class="cls-2" d="M452.52,55.49l17.75-21.75h14.4l-25,30.54,24.86,30.37H470.19L452.52,73.07l-17.6,21.58H420.57l24.81-30.37L420.49,33.74h14.27Z"/>
          <path id="path1074" class="cls-2" d="M282.06,94.65H271.52v-15H234.46v15H223.92V64.2a33.47,33.47,0,0,1,2.19-12.28,28.84,28.84,0,0,1,6.08-9.64A27.69,27.69,0,0,1,241.4,36,29.39,29.39,0,0,1,253,33.74h23.76a5,5,0,0,1,2.07.43,5.07,5.07,0,0,1,1.7,1.19,5.43,5.43,0,0,1,1.14,1.78,5.81,5.81,0,0,1,.4,2.17Zm-47.6-26h37.06V44.79H253c-.32,0-1,.05-2.06.17a18.33,18.33,0,0,0-3.61.72A21.79,21.79,0,0,0,243,47.5a15.6,15.6,0,0,0-4.18,3.4,18,18,0,0,0-3.16,5.44,22.38,22.38,0,0,0-1.22,7.86Z"/>
          <ellipse id="circle1076" class="cls-4" cx="277.54" cy="22.17" rx="7.06" ry="7.4"/>
          <path id="path1078" class="cls-5" d="M276.68,33.76a5.61,5.61,0,0,0-2,.41,5.49,5.49,0,0,0-1.8,1.19,5.52,5.52,0,0,0-1.63,4V94.65h10.8l.11-41.15V39.31a5.43,5.43,0,0,0-1.65-4,5.57,5.57,0,0,0-1.82-1.19A5.69,5.69,0,0,0,276.68,33.76Z"/>
          <path id="path1084" class="cls-2" d="M375,78.58l0-27.36L364.21,51l0,27.35Z"/>
          <path id="path1086" class="cls-2" d="M358.39,33.74l.24,11H411.7v-11Zm13.78,24.89.25,11.13H405.5V58.63Zm-12.69,25,.24,11h52v-11Z"/>
          <path id="path1088" class="cls-6" d="M363.78,51l.44,27.35h11.37l0-8.61,24.49.71V59.06l-24.73-.19L375.16,51Z"/>
          <path id="path2323" class="cls-7" d="M358.55,33.63l-.15,11,13.49.24.75-11.49Z"/>
        </g>
      </g>
    </g>
  </g>
</svg>
